<svg xmlns="http://www.w3.org/2000/svg" xmlns:xlink="http://www.w3.org/1999/xlink" version="1.1" x="0px" y="0px" viewBox="0 0 100 125" enable-background="new 0 0 100 100" xml:space="preserve"><circle fill="none" stroke="#000000" stroke-width="4" stroke-miterlimit="10" cx="50" cy="50" r="43.5"/><g><path d="M20.3,67.1c-0.2-0.3-0.3-0.6-0.5-0.9l0.9-0.5c0.2,0.3,0.3,0.6,0.5,0.8L20.3,67.1z M79.6,67.4l-0.9-0.5   c0.2-0.3,0.3-0.6,0.5-0.8l0.9,0.5C80,66.8,79.8,67.1,79.6,67.4z M17,59.8c-0.1-0.3-0.2-0.6-0.3-1l1-0.3c0.1,0.3,0.2,0.6,0.3,0.9   L17,59.8z M82.9,60.1l-1-0.3c0.1-0.3,0.2-0.6,0.3-0.9l1,0.3C83.1,59.4,83,59.7,82.9,60.1z M15.5,51.9c0-0.3,0-0.7-0.1-1l1,0   c0,0.3,0,0.6,0.1,1L15.5,51.9z M84.5,52.2l-1-0.1c0-0.3,0-0.6,0.1-1l0-0.1l1,0l0,0.1C84.5,51.5,84.5,51.9,84.5,52.2z M16.9,44.1   l-1-0.2c0.1-0.3,0.1-0.7,0.2-1l1,0.2C17,43.5,17,43.8,16.9,44.1z M83.2,44.2c-0.1-0.3-0.1-0.6-0.2-1l1-0.2c0.1,0.3,0.1,0.7,0.2,1   L83.2,44.2z M19,36.6l-0.9-0.4c0.1-0.3,0.3-0.6,0.4-0.9l0.9,0.4C19.3,36,19.2,36.3,19,36.6z M81,36.7c-0.1-0.3-0.3-0.6-0.4-0.9   l0.9-0.4c0.1,0.3,0.3,0.6,0.4,0.9L81,36.7z M22.9,29.8L22,29.2c0.2-0.3,0.4-0.5,0.6-0.8l0.8,0.6C23.2,29.3,23.1,29.6,22.9,29.8z    M77.3,29.9c-0.2-0.3-0.4-0.5-0.6-0.8l0.8-0.6c0.2,0.3,0.4,0.5,0.6,0.8L77.3,29.9z M28.1,24.1l-0.7-0.8c0.3-0.2,0.5-0.4,0.8-0.6   l0.6,0.8C28.6,23.7,28.4,23.9,28.1,24.1z M72,24.2c-0.2-0.2-0.5-0.4-0.7-0.6l0.6-0.8c0.3,0.2,0.5,0.4,0.8,0.6L72,24.2z M34.6,19.7   l-0.5-0.9c0.3-0.2,0.6-0.3,0.9-0.4l0.4,0.9C35.2,19.4,34.9,19.6,34.6,19.7z M65.6,19.8c-0.3-0.2-0.6-0.3-0.9-0.4l0.4-0.9   c0.3,0.1,0.6,0.3,0.9,0.5L65.6,19.8z M41.9,17l-0.2-1c0.3-0.1,0.7-0.2,1-0.2l0.2,1C42.5,16.8,42.2,16.9,41.9,17z M58.3,17   c-0.3-0.1-0.6-0.2-1-0.2l0.2-1c0.3,0.1,0.7,0.1,1,0.2L58.3,17z M49.6,16l0-1c0.3,0,0.7,0,1,0l0,1C50.2,16,49.9,16,49.6,16z"/></g><circle cx="50" cy="49.6" r="2.5"/><polygon points="51.5,53.4 27,24.4 53.6,51.5 "/><g><path fill="none" d="M86.5,51.8c1-20.1-14.6-37.2-34.7-38.2S14.5,28.1,13.5,48.2c-0.4,8.9,2.4,17.2,7.4,23.8h58.2   C83.4,66.3,86.1,59.4,86.5,51.8z"/><path d="M51.9,11.5c-21.2-1-39.3,15.4-40.3,36.6C11.1,57,13.7,65.3,18.4,72h2.5c-5-6.6-7.8-14.9-7.4-23.8   c1-20.1,18.1-35.7,38.2-34.7s35.7,18.1,34.7,38.2c-0.4,7.6-3.1,14.6-7.4,20.2h2.5c4-5.7,6.5-12.6,6.9-20.1   C89.5,30.7,73.1,12.6,51.9,11.5z"/></g><rect x="17" y="70.1" transform="matrix(0.7071 -0.7071 0.7071 0.7071 -44.2353 35.3283)" width="7" height="2"/><rect x="75.6" y="70.1" transform="matrix(-0.7071 -0.7071 0.7071 -0.7071 84.8452 177.2658)" width="7" height="2"/><text x="0" y="115" fill="#000000" font-size="5px" font-weight="bold" font-family="'Helvetica Neue', Helvetica, Arial-Unicode, Arial, Sans-serif">Created by Davide Dosse Dossena</text><text x="0" y="120" fill="#000000" font-size="5px" font-weight="bold" font-family="'Helvetica Neue', Helvetica, Arial-Unicode, Arial, Sans-serif">from the Noun Project</text></svg>