<svg xmlns="http://www.w3.org/2000/svg" xmlns:xlink="http://www.w3.org/1999/xlink" version="1.1" x="0px" y="0px" viewBox="0 0 100.006 125.0075" enable-background="new 0 0 100.006 100.006" xml:space="preserve"><g><path d="M76.463,40.441c-0.972-2.899-4.298-4.318-6.96-5.652c0.062-0.083,0.111-0.18,0.123-0.306   c0.229-2.649-0.073-5.141-0.948-7.257c0.066-0.004,0.135-0.02,0.205-0.053c0.716-0.336,1.41-0.803,1.993-1.336   c0.13-0.12,0.187-0.337,0.133-0.505c-0.552-1.731-1.609-3.318-2.87-4.618c-0.169-0.174-0.401-0.171-0.607-0.078   c-0.677,0.304-1.322,0.719-1.89,1.197c-0.246,0.208-0.495,0.41-0.711,0.649c-0.013,0.014-0.041,0.064-0.067,0.118   c-0.388-0.244-0.808-0.456-1.243-0.653c0.532-1.167-0.651-2.624-1.616-3.178c-0.42-0.242-1.87-0.958-2.27-0.51   c-0.646,0.726-1.005,1.631-1.078,2.6c-0.001,0.009,0.002,0.017,0.002,0.026c-0.434-0.005-0.876,0.011-1.325,0.046   c-0.155-1.15-0.693-2.232-0.58-3.425c0.028-0.29-0.248-0.472-0.497-0.498c-1.794-0.186-3.63-0.025-5.373,0.434   c-0.214,0.057-0.367,0.262-0.366,0.482c0.006,1.343,0.017,2.744,0.235,4.071c0.025,0.151,0.181,0.287,0.322,0.323   c0.037,0.006,0.073,0.013,0.109,0.019c0.014,0.038,0.074,0.044,0.083,0c0.019-0.006,0.036-0.013,0.054-0.019   c0.201-0.083,0.329-0.219,0.339-0.445c0.054-1.179-0.088-2.368-0.128-3.551c1.38-0.333,2.794-0.451,4.21-0.351   c0.016,1.047,0.396,2.04,0.584,3.069c-2.207,0.311-4.459,1.082-6.307,2.294c-0.905-1.442-2.679-2.572-4.238-2.939   c-2.151-0.507-4.033,1.17-5.175,2.774c-0.272,0.383,0.317,0.809,0.636,0.49c1.322-1.323,2.645-2.72,4.674-2.177   c1.384,0.37,2.231,1.58,3.309,2.421c-1.105,0.863-2.019,1.901-2.609,3.121c-0.117,0.243,0.176,0.494,0.381,0.294   c2.945-2.865,5.934-4.869,9.847-5.371c0.101,0.016,0.199,0.003,0.288-0.039c0.581-0.063,1.183-0.093,1.807-0.088   c2.468,0.019,4.856,0.957,6.715,2.556c2.576,2.218,2.996,5.545,2.884,8.745c-2.665-4.596-12.013-6.896-13.558-0.588   c-0.063,0.256,0.31,0.433,0.438,0.185c1.458-2.841,3.835-3.557,6.809-2.693c2.569,0.747,4.039,2.476,5.676,4.341   c-0.055,0.112-0.051,0.248,0.069,0.352c2.43,2.11,5.593,2.845,7.293,5.776c0.646,1.111-0.797,1.693-1.48,2.341   c-0.682,0.647-1.081,1.506-1.347,2.394c-4.391-0.292-6.632-5.616-10.938-5.507c-0.202,0.005-0.299,0.293-0.106,0.395   c2.223,1.173,4.016,2.509,5.962,4.095c1.496,1.218,3.102,1.972,5.013,2.124c0.019,0.023,0.04,0.042,0.062,0.062   c-0.235,0.498-0.409,1.027-0.518,1.565c-0.106,0.533-0.179,1.224-0.096,1.858c-0.706-0.256-1.385-0.618-2.142-0.554   c-0.164,0.014-0.291,0.101-0.38,0.215c-0.115-1.364-0.36-2.697-0.765-3.978c-0.133-0.417-0.717-0.242-0.646,0.178   c1.295,7.577-0.955,15.375-4.38,22.1c-3.327,6.535-12.521,18.552-20.813,12.564c0.088-0.098,0.158-0.218,0.173-0.378   c0.262-2.751,0.258-5.368-0.123-7.937c0.028,0.04,0.065,0.077,0.112,0.107c1.003,0.651,2.056,1.16,3.103,1.661   c-0.025,0.096-0.014,0.207,0.047,0.286c0.48,0.616,0.976,1.198,1.374,1.874c0.463,0.786,0.565,1.624,0.807,2.479   c0.171,0.603,1.068,0.473,1.08-0.146c0.025-1.255-0.526-2.59-1.415-3.553c1.304,0.695,2.535,1.511,3.571,2.734   c0.522,0.618,1.364-0.263,0.876-0.877c-2.158-2.715-5.883-4.243-9.135-5.187c-0.242-0.07-0.417,0.08-0.471,0.269   c-0.338-2.083-0.93-4.137-1.84-6.208c-0.775-1.767-1.653-3.483-2.547-5.191c2.487-0.049,4.97-0.598,7.434-0.887   c2.161-0.253,4.297-0.241,6.423-0.732c0.107-0.025,0.212-0.057,0.318-0.084c1.474,0.258,2.955,0.457,4.426,0.742   c1.271,0.246,2.57,0.73,3.859,0.479c0.334-0.065,0.366-0.545,0.092-0.701c-1.234-0.701-2.872-0.764-4.259-1.012   c-0.638-0.115-1.278-0.211-1.921-0.271c3.045-1.305,5.778-3.358,9.076-4.108c0.738-0.168,0.425-1.298-0.312-1.131   c-2.217,0.502-4.178,1.514-6.137,2.546c0.953-1.089,1.644-2.503,1.983-3.726c0.189-0.681-0.769-0.893-1.024-0.282   c-0.396,0.946-0.796,1.842-1.374,2.695c-0.595,0.876-1.414,1.477-2.19,2.173c-0.153,0.138-0.152,0.343-0.066,0.504   c-0.625,0.296-1.262,0.575-1.917,0.818c-4.634,1.721-9.958,0.886-14.691,2.444c-1.411-2.688-2.839-5.367-3.948-8.202   c-1.119-2.857-1.979-6.371-2.191-9.901c7.706,3.167,9.683,15.352,19.698,13.063c0.585-0.134,0.465-1.109-0.144-1.055   c-3.834,0.336-6.343-0.694-8.562-2.777c0.806,0.364,1.75,0.528,2.557,0.616c1.087,0.119,3.088,0.372,3.78-0.696   c0.121-0.189-0.004-0.428-0.201-0.491c-0.399-0.132-0.521-0.107-0.938-0.001c-0.726,0.187-1.488,0.177-2.232,0.159   c-1.31-0.032-2.5-0.475-3.766-0.712c-0.089-0.017-0.172,0.011-0.232,0.062c-0.615-0.687-1.22-1.453-1.837-2.296   c-2.088-2.849-4.479-5.917-8.154-6.55c-0.176-4.9,0.943-9.755,4.407-12.854c0.136-0.121-0.01-0.322-0.168-0.288   c-6.399,1.423-5.36,13.586-4.694,18.133c0.793,5.389,3.246,10.081,5.751,14.841c1.605,3.053,2.851,5.977,3.633,8.997   c-0.184,2.426-0.795,4.429-2.096,6.597c-0.012,0.02-0.014,0.039-0.021,0.059c-0.39-0.382-0.782-0.76-1.169-1.141   c-1.965-1.94-3.529-4.005-4.96-6.363c-2.224-3.667-4.264-7.475-5.84-11.469c-1.548-3.927-2.481-8.096-2.245-12.329   c0.277-4.979,3.12-8.856,6.67-12.116c0.26-0.239-0.082-0.688-0.38-0.491c-0.975,0.648-1.837,1.357-2.599,2.116   c-0.361-1.186-1.188-2.354-1.994-3.274c0.941-0.856,2.01-1.585,2.949-2.421c0.305,0.576,0.753,1.04,1.303,1.199   c0.224,0.065,0.413-0.148,0.363-0.362c-0.25-1.072-1.262-1.692-1.07-2.928c0.185-1.188,1.373-1.562,2.326-2.008   c0.224,0.279,0.494,0.518,0.807,0.691c0.251,0.14,0.575-0.089,0.491-0.378c-0.234-0.807-0.814-1.393-1.06-2.208   c-0.281-0.939,0.407-1.663,1.104-2.158c0.912-0.648,2.703-1.474,3.949-1.563c0.588,1.366,1.689,3.25,2.917,3.89   c0.136,0.07,0.31-0.017,0.31-0.178c-0.004-0.731-0.387-1.145-0.828-1.724c-0.66-0.866-1.253-1.706-1.702-2.703   c-0.063-0.141-0.252-0.235-0.4-0.23c-1.771,0.059-4.216,1.192-5.5,2.405c-0.922,0.869-1.021,2.288-0.526,3.418   c-1.24,0.181-2.341,1.098-2.781,2.265c-0.178,0.473-0.18,1.073-0.043,1.659c-1.369,0.545-2.694,2.009-3.656,2.943   c-0.2,0.195-0.18,0.502,0,0.699c0.984,1.082,1.326,2.735,2.283,3.781c-4.676,5.376-4.777,12.958-2.633,19.971   c2.937,9.609,8.659,18.006,15.86,24.876c0.186,0.176,0.421,0.164,0.598,0.057c-0.013,0.142,0.035,0.29,0.186,0.417   c7.817,6.572,16.86-2.486,21.047-8.927c3.005-4.625,5.815-10.809,6.669-16.905c0.812,0.265,1.729,0.316,2.514,0.605   c0.296,0.108,0.599-0.12,0.688-0.39c0.471-1.435,0.803-2.912,1.057-4.4c0.053-0.313-0.098-0.577-0.376-0.672   c-0.041-0.547-0.169-1.103-0.135-1.661c0.069-1.129,0.59-2.116,1.093-3.097c0.085-0.164,0.022-0.336-0.095-0.434   c0.521-1,1.263-1.639,2.239-2.492C76.693,41.89,76.699,41.146,76.463,40.441z M59.311,20.907c0.273-0.654,0.436-1.324,0.872-1.889   c0.764,0.18,1.493,0.451,2.067,1.011c0.489,0.477,0.46,1.011,0.518,1.566c-0.737-0.26-1.533-0.458-2.396-0.585   C60.028,20.96,59.672,20.928,59.311,20.907z M65.479,23.037c0.66-0.479,1.439-0.979,2.19-1.353   c0.949,1.046,1.758,2.282,2.232,3.615c-0.478,0.379-1.013,0.678-1.539,0.983c-0.036,0.021-0.057,0.049-0.085,0.074   C67.601,25.053,66.672,23.928,65.479,23.037z M39.231,77.021c0.054-0.019,0.105-0.048,0.154-0.09   c1.233-1.083,1.767-2.639,1.985-4.269c0.354,2.292,0.438,4.676,0.198,7.242c-0.046,0.021-0.086,0.049-0.126,0.08   c0.004-0.085-0.009-0.175-0.062-0.265C40.797,78.716,40.038,77.847,39.231,77.021z M69.339,50.199   c0.052,0.039,0.115,0.068,0.194,0.086c0.901,0.204,1.728,0.616,2.619,0.808c-0.206,1.092-0.454,2.178-0.766,3.245   c-0.705-0.187-1.432-0.299-2.155-0.412C69.36,52.67,69.399,51.424,69.339,50.199z"/><path d="M34.168,35.729c1.28-2.603,2.145-4.984,4.576-6.789c2.63-1.952,4.983-0.965,7.87-0.934   c0.188,0.002,0.324-0.263,0.163-0.394c-2.212-1.792-5.703-1.125-8.019,0.134c-2.628,1.428-4.885,4.744-5.31,7.68   c-0.014,0.096,0.01,0.187,0.053,0.266c-0.279-0.215-0.553-0.443-0.813-0.698c-0.113-0.11-0.336-0.001-0.277,0.161   c1.242,3.422,6.501,4.114,9.457,5.461c2.801,1.277,4.894,6.148,8.398,5.089c0.324-0.098,0.314-0.543,0-0.646   c-3.229-1.052-4.827-3.85-7.828-5.419c-0.722-0.377-1.473-0.684-2.231-0.965c0.886-0.445,1.59-1.289,2.161-2.155   c0.128-0.194,0.249-0.392,0.37-0.589c1.185-0.241,2.261-0.226,3.475,0.094c1.114,0.293,2.179,1.179,3.337,1.052   c0.196-0.021,0.387-0.236,0.248-0.434c-0.74-1.065-2.581-1.444-3.779-1.744c-0.866-0.216-1.766-0.264-2.601-0.053   c0.263-0.407,0.54-0.805,0.868-1.172c1.065-1.192,2.31-0.952,3.68-1.365c0.271-0.082,0.376-0.508,0.084-0.646   c-1.789-0.843-3.931,0.418-5.003,1.862c-1.413,1.9-2.035,3.709-4.2,4.67c-1.76-0.604-3.514-1.194-5.037-2.271   C33.944,35.95,34.083,35.902,34.168,35.729z"/><path d="M37.036,65.715c-0.102,1.43-0.949,2.541-1.252,3.886c-0.082,0.365,0.331,0.588,0.605,0.353   c2.189-1.883,2.146-6.347,0.379-8.437c-0.235-0.278-0.622,0.076-0.478,0.369C36.903,63.123,37.133,64.339,37.036,65.715z"/><path d="M34.593,66.77c-0.508,0.568-1.447,1.293-1.5,2.088c-0.014,0.211,0.212,0.352,0.4,0.305c0.728-0.181,1.271-1.202,1.74-1.752   c0.592-0.694,1.137-1.436,1.735-2.119c0.248-0.284-0.131-0.665-0.412-0.413C35.871,65.492,35.21,66.082,34.593,66.77z"/><path d="M30.838,59.059c1.976-1.135,2.063-5.536,1.536-7.45c-0.062-0.22-0.384-0.22-0.444,0c-0.341,1.229-0.277,2.531-0.484,3.785   c-0.198,1.201-0.941,2.228-1.064,3.402C30.356,59.035,30.654,59.165,30.838,59.059z"/><path d="M30.628,40.777c-4.481,0.647-3.989,6.792-3.776,10.055c0.04,0.615,0.928,0.62,0.958,0c0.073-1.526-0.086-3.055-0.003-4.584   c0.017-0.297,0.047-0.578,0.089-0.846c0.205,0.451,0.38,0.915,0.521,1.404c0.194,0.683,0.133,1.56,0.646,2.087   c0.098,0.101,0.278,0.078,0.347-0.046c0.408-0.734-0.035-1.802-0.266-2.546c-0.215-0.686-0.545-1.341-0.991-1.904   c0.445-1.316,1.31-2.286,2.641-3.233C30.995,41.019,30.865,40.743,30.628,40.777z"/><path d="M37.341,46.337c-0.123-0.168-0.378-0.069-0.336,0.142c0.371,1.893,1.032,3.768,1.741,5.556   c0.474,1.197,1.177,3.075,2.561,3.444c0.186,0.049,0.368-0.124,0.313-0.313c-0.396-1.373-1.514-2.653-2.104-3.983   C38.808,49.592,38.376,47.763,37.341,46.337z"/><path d="M48.49,62.726c1.058,0.534,2.632,1.315,3.71,0.497c0.146-0.111,0.203-0.37,0-0.466c-1.273-0.612-2.696-0.77-4-1.436   c-1.395-0.712-2.726-1.464-4.311-1.597c-0.317-0.026-0.47,0.488-0.167,0.619C45.359,61.048,46.9,61.921,48.49,62.726z"/><path d="M64.122,59.782c0.2-0.698-0.805-0.934-1.061-0.292c-1.774,4.465-4.772,7.941-9.402,9.549   c-1.119,0.389-2.164,0.557-3.157,0.563c0.971-0.282,1.911-0.695,2.738-1.119c1.573-0.807,3.878-2.66,3.649-4.654   c-0.047-0.406-0.55-0.595-0.789-0.214c-0.367,0.583-0.56,1.232-0.939,1.814c-0.591,0.908-1.574,1.549-2.492,2.078   c-1.678,0.969-3.476,1.121-5.293,1.57c-1.944-0.663-3.76-1.867-5.662-3.165c-0.221-0.151-0.477,0.139-0.354,0.353   c2.357,4.081,7.612,5.05,11.907,4.076c1.713,0.963,5.144,0.789,6.426-0.769c0.27-0.328,0.017-0.769-0.403-0.693   c-0.836,0.15-1.592,0.61-2.43,0.804c-0.594,0.137-1.178,0.146-1.76,0.095C59.378,68.109,62.88,64.128,64.122,59.782z"/></g><text x="0" y="115.006" fill="#000000" font-size="5px" font-weight="bold" font-family="'Helvetica Neue', Helvetica, Arial-Unicode, Arial, Sans-serif">Created by Julia Amadeo</text><text x="0" y="120.006" fill="#000000" font-size="5px" font-weight="bold" font-family="'Helvetica Neue', Helvetica, Arial-Unicode, Arial, Sans-serif">from the Noun Project</text></svg>